<?xml version="1.0" encoding="UTF-8" standalone="no"?>
<!DOCTYPE svg PUBLIC "-//W3C//DTD SVG 1.1//EN"
 "http://www.w3.org/Graphics/SVG/1.1/DTD/svg11.dtd">
<!-- Generated by graphviz version 5.0.0 (20220707.1540)
 -->
<!-- Title: dependencies Pages: 1 -->
<svg width="416pt" height="247pt"
 viewBox="0.00 0.00 416.00 246.80" xmlns="http://www.w3.org/2000/svg" xmlns:xlink="http://www.w3.org/1999/xlink">
<g id="graph0" class="graph" transform="scale(1 1) rotate(0) translate(4 242.8)">
<title>dependencies</title>
<polygon fill="white" stroke="transparent" points="-4,4 -4,-242.8 412,-242.8 412,4 -4,4"/>
<text text-anchor="middle" x="204" y="-8.2" font-family="sans-serif" font-size="14.00">dependencies</text>
<g id="clust1" class="cluster">
<title>cluster_SharedModule</title>
<polygon fill="none" stroke="black" stroke-dasharray="1,5" points="8,-32.8 8,-230.8 400,-230.8 400,-32.8 8,-32.8"/>
</g>
<g id="clust2" class="cluster">
<title>cluster_SharedModule_declarations</title>
<polygon fill="none" stroke="black" points="20,-40.8 20,-92.8 388,-92.8 388,-40.8 20,-40.8"/>
</g>
<g id="clust6" class="cluster">
<title>cluster_SharedModule_exports</title>
<polygon fill="none" stroke="black" points="16,-170.8 16,-222.8 392,-222.8 392,-170.8 16,-170.8"/>
</g>
<!-- CustomUppercaseDirective -->
<g id="node1" class="node">
<title>CustomUppercaseDirective</title>
<polygon fill="#ffffb3" stroke="black" points="380.22,-84.8 209.78,-84.8 209.78,-48.8 380.22,-48.8 380.22,-84.8"/>
<text text-anchor="middle" x="295" y="-62.6" font-family="Times,serif" font-size="14.00">CustomUppercaseDirective</text>
</g>
<!-- SharedModule -->
<g id="node3" class="node">
<title>SharedModule</title>
<polygon fill="#8dd3c7" stroke="black" points="160.43,-149.8 157.43,-153.8 136.43,-153.8 133.43,-149.8 61.57,-149.8 61.57,-113.8 160.43,-113.8 160.43,-149.8"/>
<text text-anchor="middle" x="111" y="-127.6" font-family="Times,serif" font-size="14.00">SharedModule</text>
</g>
<!-- CustomUppercaseDirective&#45;&gt;SharedModule -->
<g id="edge1" class="edge">
<title>CustomUppercaseDirective&#45;&gt;SharedModule</title>
<path fill="none" stroke="black" d="M323.54,-84.82C323.54,-102.17 323.54,-125.8 323.54,-125.8 323.54,-125.8 170.29,-125.8 170.29,-125.8"/>
<polygon fill="black" stroke="black" points="170.29,-122.3 160.29,-125.8 170.29,-129.3 170.29,-122.3"/>
</g>
<!-- DialogContentComponent -->
<g id="node2" class="node">
<title>DialogContentComponent</title>
<polygon fill="#ffffb3" stroke="black" points="191.77,-84.8 28.23,-84.8 28.23,-48.8 191.77,-48.8 191.77,-84.8"/>
<text text-anchor="middle" x="110" y="-62.6" font-family="Times,serif" font-size="14.00">DialogContentComponent</text>
</g>
<!-- DialogContentComponent&#45;&gt;SharedModule -->
<g id="edge2" class="edge">
<title>DialogContentComponent&#45;&gt;SharedModule</title>
<path fill="none" stroke="black" d="M111,-84.91C111,-84.91 111,-103.79 111,-103.79"/>
<polygon fill="black" stroke="black" points="107.5,-103.79 111,-113.79 114.5,-103.79 107.5,-103.79"/>
</g>
<!-- CustomUppercaseDirective  -->
<g id="node4" class="node">
<title>CustomUppercaseDirective </title>
<polygon fill="#fb8072" stroke="black" points="384.22,-214.8 209.78,-214.8 209.78,-178.8 384.22,-178.8 384.22,-214.8"/>
<text text-anchor="middle" x="297" y="-192.6" font-family="Times,serif" font-size="14.00">CustomUppercaseDirective </text>
</g>
<!-- SharedModule&#45;&gt;CustomUppercaseDirective  -->
<g id="edge3" class="edge">
<title>SharedModule&#45;&gt;CustomUppercaseDirective </title>
<path fill="none" stroke="black" stroke-dasharray="5,2" d="M160.27,-137.8C205.89,-137.8 266.71,-137.8 266.71,-137.8 266.71,-137.8 266.71,-168.78 266.71,-168.78"/>
<polygon fill="black" stroke="black" points="263.21,-168.78 266.71,-178.78 270.21,-168.78 263.21,-168.78"/>
</g>
<!-- DialogContentComponent  -->
<g id="node5" class="node">
<title>DialogContentComponent </title>
<polygon fill="#fb8072" stroke="black" points="191.77,-214.8 24.23,-214.8 24.23,-178.8 191.77,-178.8 191.77,-214.8"/>
<text text-anchor="middle" x="108" y="-192.6" font-family="Times,serif" font-size="14.00">DialogContentComponent </text>
</g>
<!-- SharedModule&#45;&gt;DialogContentComponent  -->
<g id="edge4" class="edge">
<title>SharedModule&#45;&gt;DialogContentComponent </title>
<path fill="none" stroke="black" stroke-dasharray="5,2" d="M111,-149.91C111,-149.91 111,-168.79 111,-168.79"/>
<polygon fill="black" stroke="black" points="107.5,-168.79 111,-178.79 114.5,-168.79 107.5,-168.79"/>
</g>
</g>
</svg>
