<?xml version="1.0" encoding="UTF-8" standalone="no"?>
<!DOCTYPE svg PUBLIC "-//W3C//DTD SVG 1.1//EN"
 "http://www.w3.org/Graphics/SVG/1.1/DTD/svg11.dtd">
<!-- Generated by graphviz version 5.0.0 (20220707.1540)
 -->
<!-- Title: dependencies Pages: 1 -->
<svg width="786pt" height="174pt"
 viewBox="0.00 0.00 786.00 173.80" xmlns="http://www.w3.org/2000/svg" xmlns:xlink="http://www.w3.org/1999/xlink">
<g id="graph0" class="graph" transform="scale(1 1) rotate(0) translate(4 169.8)">
<title>dependencies</title>
<polygon fill="white" stroke="transparent" points="-4,4 -4,-169.8 782,-169.8 782,4 -4,4"/>
<text text-anchor="middle" x="389" y="-8.2" font-family="sans-serif" font-size="14.00">dependencies</text>
<g id="clust1" class="cluster">
<title>cluster_HeroesModule</title>
<polygon fill="none" stroke="black" stroke-dasharray="1,5" points="8,-32.8 8,-157.8 770,-157.8 770,-32.8 8,-32.8"/>
</g>
<g id="clust6" class="cluster">
<title>cluster_HeroesModule_imports</title>
<polygon fill="none" stroke="black" points="486,-40.8 486,-92.8 762,-92.8 762,-40.8 486,-40.8"/>
</g>
<g id="clust2" class="cluster">
<title>cluster_HeroesModule_declarations</title>
<polygon fill="none" stroke="black" points="16,-40.8 16,-92.8 478,-92.8 478,-40.8 16,-40.8"/>
</g>
<!-- HeroesFormComponent -->
<g id="node1" class="node">
<title>HeroesFormComponent</title>
<polygon fill="#ffffb3" stroke="black" points="469.82,-84.8 318.18,-84.8 318.18,-48.8 469.82,-48.8 469.82,-84.8"/>
<text text-anchor="middle" x="394" y="-62.6" font-family="Times,serif" font-size="14.00">HeroesFormComponent</text>
</g>
<!-- HeroesModule -->
<g id="node4" class="node">
<title>HeroesModule</title>
<polygon fill="#8dd3c7" stroke="black" points="443.7,-149.8 440.7,-153.8 419.7,-153.8 416.7,-149.8 344.3,-149.8 344.3,-113.8 443.7,-113.8 443.7,-149.8"/>
<text text-anchor="middle" x="394" y="-127.6" font-family="Times,serif" font-size="14.00">HeroesModule</text>
</g>
<!-- HeroesFormComponent&#45;&gt;HeroesModule -->
<g id="edge1" class="edge">
<title>HeroesFormComponent&#45;&gt;HeroesModule</title>
<path fill="none" stroke="black" d="M394,-84.91C394,-84.91 394,-103.79 394,-103.79"/>
<polygon fill="black" stroke="black" points="390.5,-103.79 394,-113.79 397.5,-103.79 390.5,-103.79"/>
</g>
<!-- HeroesListComponent -->
<g id="node2" class="node">
<title>HeroesListComponent</title>
<polygon fill="#ffffb3" stroke="black" points="300.26,-84.8 157.74,-84.8 157.74,-48.8 300.26,-48.8 300.26,-84.8"/>
<text text-anchor="middle" x="229" y="-62.6" font-family="Times,serif" font-size="14.00">HeroesListComponent</text>
</g>
<!-- HeroesListComponent&#45;&gt;HeroesModule -->
<g id="edge2" class="edge">
<title>HeroesListComponent&#45;&gt;HeroesModule</title>
<path fill="none" stroke="black" d="M229,-84.82C229,-102.17 229,-125.8 229,-125.8 229,-125.8 334.05,-125.8 334.05,-125.8"/>
<polygon fill="black" stroke="black" points="334.05,-129.3 344.05,-125.8 334.05,-122.3 334.05,-129.3"/>
</g>
<!-- HomeComponent -->
<g id="node3" class="node">
<title>HomeComponent</title>
<polygon fill="#ffffb3" stroke="black" points="139.55,-84.8 24.45,-84.8 24.45,-48.8 139.55,-48.8 139.55,-84.8"/>
<text text-anchor="middle" x="82" y="-62.6" font-family="Times,serif" font-size="14.00">HomeComponent</text>
</g>
<!-- HomeComponent&#45;&gt;HeroesModule -->
<g id="edge3" class="edge">
<title>HomeComponent&#45;&gt;HeroesModule</title>
<path fill="none" stroke="black" d="M82,-85.08C82,-106.12 82,-137.8 82,-137.8 82,-137.8 334.22,-137.8 334.22,-137.8"/>
<polygon fill="black" stroke="black" points="334.22,-141.3 344.22,-137.8 334.22,-134.3 334.22,-141.3"/>
</g>
<!-- HeroesRoutingModule -->
<g id="node5" class="node">
<title>HeroesRoutingModule</title>
<polygon fill="#8dd3c7" stroke="black" points="754.32,-84.8 751.32,-88.8 730.32,-88.8 727.32,-84.8 609.68,-84.8 609.68,-48.8 754.32,-48.8 754.32,-84.8"/>
<text text-anchor="middle" x="682" y="-62.6" font-family="Times,serif" font-size="14.00">HeroesRoutingModule</text>
</g>
<!-- HeroesRoutingModule&#45;&gt;HeroesModule -->
<g id="edge4" class="edge">
<title>HeroesRoutingModule&#45;&gt;HeroesModule</title>
<path fill="none" stroke="black" d="M682,-85.08C682,-106.12 682,-137.8 682,-137.8 682,-137.8 453.84,-137.8 453.84,-137.8"/>
<polygon fill="black" stroke="black" points="453.84,-134.3 443.84,-137.8 453.84,-141.3 453.84,-134.3"/>
</g>
<!-- SharedModule -->
<g id="node6" class="node">
<title>SharedModule</title>
<polygon fill="#8dd3c7" stroke="black" points="592.43,-84.8 589.43,-88.8 568.43,-88.8 565.43,-84.8 493.57,-84.8 493.57,-48.8 592.43,-48.8 592.43,-84.8"/>
<text text-anchor="middle" x="543" y="-62.6" font-family="Times,serif" font-size="14.00">SharedModule</text>
</g>
<!-- SharedModule&#45;&gt;HeroesModule -->
<g id="edge5" class="edge">
<title>SharedModule&#45;&gt;HeroesModule</title>
<path fill="none" stroke="black" d="M543,-84.82C543,-102.17 543,-125.8 543,-125.8 543,-125.8 453.61,-125.8 453.61,-125.8"/>
<polygon fill="black" stroke="black" points="453.61,-122.3 443.61,-125.8 453.61,-129.3 453.61,-122.3"/>
</g>
</g>
</svg>
