<?xml version="1.0" encoding="UTF-8" standalone="no"?>
<!DOCTYPE svg PUBLIC "-//W3C//DTD SVG 1.1//EN"
 "http://www.w3.org/Graphics/SVG/1.1/DTD/svg11.dtd">
<!-- Generated by graphviz version 5.0.0 (20220707.1540)
 -->
<!-- Title: dependencies Pages: 1 -->
<svg width="1112pt" height="247pt"
 viewBox="0.00 0.00 1112.00 246.80" xmlns="http://www.w3.org/2000/svg" xmlns:xlink="http://www.w3.org/1999/xlink">
<g id="graph0" class="graph" transform="scale(1 1) rotate(0) translate(4 242.8)">
<title>dependencies</title>
<polygon fill="white" stroke="transparent" points="-4,4 -4,-242.8 1108,-242.8 1108,4 -4,4"/>
<text text-anchor="middle" x="552" y="-8.2" font-family="sans-serif" font-size="14.00">dependencies</text>
<g id="clust1" class="cluster">
<title>cluster_AppModule</title>
<polygon fill="none" stroke="black" stroke-dasharray="1,5" points="8,-32.8 8,-230.8 1096,-230.8 1096,-32.8 8,-32.8"/>
</g>
<g id="clust9" class="cluster">
<title>cluster_AppModule_providers</title>
<polygon fill="none" stroke="black" points="586,-40.8 586,-92.8 1088,-92.8 1088,-40.8 586,-40.8"/>
</g>
<g id="clust7" class="cluster">
<title>cluster_AppModule_exports</title>
<polygon fill="none" stroke="black" points="371,-170.8 371,-222.8 505,-222.8 505,-170.8 371,-170.8"/>
</g>
<g id="clust8" class="cluster">
<title>cluster_AppModule_bootstrap</title>
<polygon fill="none" stroke="black" points="513,-170.8 513,-222.8 637,-222.8 637,-170.8 513,-170.8"/>
</g>
<g id="clust6" class="cluster">
<title>cluster_AppModule_imports</title>
<polygon fill="none" stroke="black" points="434,-40.8 434,-92.8 578,-92.8 578,-40.8 434,-40.8"/>
</g>
<g id="clust2" class="cluster">
<title>cluster_AppModule_declarations</title>
<polygon fill="none" stroke="black" points="16,-40.8 16,-92.8 426,-92.8 426,-40.8 16,-40.8"/>
</g>
<!-- AppComponent -->
<g id="node1" class="node">
<title>AppComponent</title>
<polygon fill="#ffffb3" stroke="black" points="417.94,-84.8 312.06,-84.8 312.06,-48.8 417.94,-48.8 417.94,-84.8"/>
<text text-anchor="middle" x="365" y="-62.6" font-family="Times,serif" font-size="14.00">AppComponent</text>
</g>
<!-- AppModule -->
<g id="node4" class="node">
<title>AppModule</title>
<polygon fill="#8dd3c7" stroke="black" points="547.66,-149.8 544.66,-153.8 523.66,-153.8 520.66,-149.8 464.34,-149.8 464.34,-113.8 547.66,-113.8 547.66,-149.8"/>
<text text-anchor="middle" x="506" y="-127.6" font-family="Times,serif" font-size="14.00">AppModule</text>
</g>
<!-- AppComponent&#45;&gt;AppModule -->
<g id="edge1" class="edge">
<title>AppComponent&#45;&gt;AppModule</title>
<path fill="none" stroke="black" d="M398.29,-84.83C398.29,-101.2 398.29,-122.8 398.29,-122.8 398.29,-122.8 454.05,-122.8 454.05,-122.8"/>
<polygon fill="black" stroke="black" points="454.05,-126.3 464.05,-122.8 454.05,-119.3 454.05,-126.3"/>
</g>
<!-- LoginComponent -->
<g id="node2" class="node">
<title>LoginComponent</title>
<polygon fill="#ffffb3" stroke="black" points="294.27,-84.8 179.73,-84.8 179.73,-48.8 294.27,-48.8 294.27,-84.8"/>
<text text-anchor="middle" x="237" y="-62.6" font-family="Times,serif" font-size="14.00">LoginComponent</text>
</g>
<!-- LoginComponent&#45;&gt;AppModule -->
<g id="edge2" class="edge">
<title>LoginComponent&#45;&gt;AppModule</title>
<path fill="none" stroke="black" d="M237,-84.91C237,-104.14 237,-131.8 237,-131.8 237,-131.8 454.26,-131.8 454.26,-131.8"/>
<polygon fill="black" stroke="black" points="454.26,-135.3 464.26,-131.8 454.26,-128.3 454.26,-135.3"/>
</g>
<!-- NotFoundComponent -->
<g id="node3" class="node">
<title>NotFoundComponent</title>
<polygon fill="#ffffb3" stroke="black" points="162.12,-84.8 23.88,-84.8 23.88,-48.8 162.12,-48.8 162.12,-84.8"/>
<text text-anchor="middle" x="93" y="-62.6" font-family="Times,serif" font-size="14.00">NotFoundComponent</text>
</g>
<!-- NotFoundComponent&#45;&gt;AppModule -->
<g id="edge3" class="edge">
<title>NotFoundComponent&#45;&gt;AppModule</title>
<path fill="none" stroke="black" d="M93,-85.09C93,-107.01 93,-140.8 93,-140.8 93,-140.8 454.13,-140.8 454.13,-140.8"/>
<polygon fill="black" stroke="black" points="454.13,-144.3 464.13,-140.8 454.13,-137.3 454.13,-144.3"/>
</g>
<!-- LoginComponent  -->
<g id="node6" class="node">
<title>LoginComponent </title>
<polygon fill="#fb8072" stroke="black" points="497.27,-214.8 378.73,-214.8 378.73,-178.8 497.27,-178.8 497.27,-214.8"/>
<text text-anchor="middle" x="438" y="-192.6" font-family="Times,serif" font-size="14.00">LoginComponent </text>
</g>
<!-- AppModule&#45;&gt;LoginComponent  -->
<g id="edge5" class="edge">
<title>AppModule&#45;&gt;LoginComponent </title>
<path fill="none" stroke="black" stroke-dasharray="5,2" d="M480.65,-149.91C480.65,-149.91 480.65,-168.79 480.65,-168.79"/>
<polygon fill="black" stroke="black" points="477.15,-168.79 480.65,-178.79 484.15,-168.79 477.15,-168.79"/>
</g>
<!-- AppComponent  -->
<g id="node7" class="node">
<title>AppComponent </title>
<polygon fill="#80b1d3" stroke="black" points="629.44,-214.8 520.56,-214.8 520.56,-178.8 629.44,-178.8 629.44,-214.8"/>
<text text-anchor="middle" x="575" y="-192.6" font-family="Times,serif" font-size="14.00">AppComponent </text>
</g>
<!-- AppModule&#45;&gt;AppComponent  -->
<g id="edge6" class="edge">
<title>AppModule&#45;&gt;AppComponent </title>
<path fill="none" stroke="black" stroke-dasharray="1,5" d="M534.18,-149.91C534.18,-149.91 534.18,-168.79 534.18,-168.79"/>
<polygon fill="black" stroke="black" points="530.68,-168.79 534.18,-178.79 537.68,-168.79 530.68,-168.79"/>
</g>
<!-- AppRoutingModule -->
<g id="node5" class="node">
<title>AppRoutingModule</title>
<polygon fill="#8dd3c7" stroke="black" points="570.28,-84.8 567.28,-88.8 546.28,-88.8 543.28,-84.8 441.72,-84.8 441.72,-48.8 570.28,-48.8 570.28,-84.8"/>
<text text-anchor="middle" x="506" y="-62.6" font-family="Times,serif" font-size="14.00">AppRoutingModule</text>
</g>
<!-- AppRoutingModule&#45;&gt;AppModule -->
<g id="edge4" class="edge">
<title>AppRoutingModule&#45;&gt;AppModule</title>
<path fill="none" stroke="black" d="M506,-84.91C506,-84.91 506,-103.79 506,-103.79"/>
<polygon fill="black" stroke="black" points="502.5,-103.79 506,-113.79 509.5,-103.79 502.5,-103.79"/>
</g>
<!-- LoaderInterceptor -->
<g id="node8" class="node">
<title>LoaderInterceptor</title>
<ellipse fill="#fdb462" stroke="black" cx="999" cy="-66.8" rx="80.98" ry="18"/>
<text text-anchor="middle" x="999" y="-62.6" font-family="Times,serif" font-size="14.00">LoaderInterceptor</text>
</g>
<!-- LoaderInterceptor&#45;&gt;AppModule -->
<g id="edge7" class="edge">
<title>LoaderInterceptor&#45;&gt;AppModule</title>
<path fill="none" stroke="black" d="M999,-85.09C999,-107.01 999,-140.8 999,-140.8 999,-140.8 558.03,-140.8 558.03,-140.8"/>
<polygon fill="black" stroke="black" points="558.03,-137.3 548.03,-140.8 558.03,-144.3 558.03,-137.3"/>
</g>
<!-- LoginService -->
<g id="node9" class="node">
<title>LoginService</title>
<ellipse fill="#fdb462" stroke="black" cx="837" cy="-66.8" rx="63.12" ry="18"/>
<text text-anchor="middle" x="837" y="-62.6" font-family="Times,serif" font-size="14.00">LoginService</text>
</g>
<!-- LoginService&#45;&gt;AppModule -->
<g id="edge8" class="edge">
<title>LoginService&#45;&gt;AppModule</title>
<path fill="none" stroke="black" d="M837,-84.91C837,-104.14 837,-131.8 837,-131.8 837,-131.8 557.92,-131.8 557.92,-131.8"/>
<polygon fill="black" stroke="black" points="557.92,-128.3 547.92,-131.8 557.92,-135.3 557.92,-128.3"/>
</g>
<!-- MainStoreService -->
<g id="node10" class="node">
<title>MainStoreService</title>
<ellipse fill="#fdb462" stroke="black" cx="675" cy="-66.8" rx="80.52" ry="18"/>
<text text-anchor="middle" x="675" y="-62.6" font-family="Times,serif" font-size="14.00">MainStoreService</text>
</g>
<!-- MainStoreService&#45;&gt;AppModule -->
<g id="edge9" class="edge">
<title>MainStoreService&#45;&gt;AppModule</title>
<path fill="none" stroke="black" d="M611.85,-78.13C611.85,-94.5 611.85,-122.8 611.85,-122.8 611.85,-122.8 557.84,-122.8 557.84,-122.8"/>
<polygon fill="black" stroke="black" points="557.84,-119.3 547.84,-122.8 557.84,-126.3 557.84,-119.3"/>
</g>
</g>
</svg>
