<?xml version="1.0" encoding="UTF-8" standalone="no"?>
<!DOCTYPE svg PUBLIC "-//W3C//DTD SVG 1.1//EN"
 "http://www.w3.org/Graphics/SVG/1.1/DTD/svg11.dtd">
<!-- Generated by graphviz version 5.0.0 (20220707.1540)
 -->
<!-- Title: dependencies Pages: 1 -->
<svg width="2658pt" height="253pt"
 viewBox="0.00 0.00 2658.00 252.80" xmlns="http://www.w3.org/2000/svg" xmlns:xlink="http://www.w3.org/1999/xlink">
<g id="graph0" class="graph" transform="scale(1 1) rotate(0) translate(4 248.8)">
<title>dependencies</title>
<polygon fill="white" stroke="transparent" points="-4,4 -4,-248.8 2654,-248.8 2654,4 -4,4"/>
<text text-anchor="middle" x="1325" y="-8.2" font-family="sans-serif" font-size="14.00">dependencies</text>
<g id="clust1" class="cluster">
<title>cluster_AppModule</title>
<polygon fill="none" stroke="black" stroke-dasharray="1,5" points="8,-32.8 8,-236.8 1096,-236.8 1096,-32.8 8,-32.8"/>
</g>
<g id="clust2" class="cluster">
<title>cluster_AppModule_declarations</title>
<polygon fill="none" stroke="black" points="678,-40.8 678,-92.8 1088,-92.8 1088,-40.8 678,-40.8"/>
</g>
<g id="clust6" class="cluster">
<title>cluster_AppModule_imports</title>
<polygon fill="none" stroke="black" points="526,-40.8 526,-92.8 670,-92.8 670,-40.8 526,-40.8"/>
</g>
<g id="clust7" class="cluster">
<title>cluster_AppModule_exports</title>
<polygon fill="none" stroke="black" points="463,-176.8 463,-228.8 597,-228.8 597,-176.8 463,-176.8"/>
</g>
<g id="clust8" class="cluster">
<title>cluster_AppModule_bootstrap</title>
<polygon fill="none" stroke="black" points="605,-176.8 605,-228.8 729,-228.8 729,-176.8 605,-176.8"/>
</g>
<g id="clust9" class="cluster">
<title>cluster_AppModule_providers</title>
<polygon fill="none" stroke="black" points="16,-40.8 16,-92.8 518,-92.8 518,-40.8 16,-40.8"/>
</g>
<g id="clust16" class="cluster">
<title>cluster_HeroesModule</title>
<polygon fill="none" stroke="black" stroke-dasharray="1,5" points="1104,-32.8 1104,-160.8 1866,-160.8 1866,-32.8 1104,-32.8"/>
</g>
<g id="clust17" class="cluster">
<title>cluster_HeroesModule_declarations</title>
<polygon fill="none" stroke="black" points="1112,-40.8 1112,-92.8 1574,-92.8 1574,-40.8 1112,-40.8"/>
</g>
<g id="clust21" class="cluster">
<title>cluster_HeroesModule_imports</title>
<polygon fill="none" stroke="black" points="1582,-40.8 1582,-92.8 1858,-92.8 1858,-40.8 1582,-40.8"/>
</g>
<g id="clust31" class="cluster">
<title>cluster_SharedModule</title>
<polygon fill="none" stroke="black" stroke-dasharray="1,5" points="1874,-100.8 1874,-168.8 2642,-168.8 2642,-100.8 1874,-100.8"/>
</g>
<g id="clust32" class="cluster">
<title>cluster_SharedModule_declarations</title>
<polygon fill="none" stroke="black" points="2266,-108.8 2266,-160.8 2634,-160.8 2634,-108.8 2266,-108.8"/>
</g>
<g id="clust36" class="cluster">
<title>cluster_SharedModule_exports</title>
<polygon fill="none" stroke="black" points="1882,-108.8 1882,-160.8 2258,-160.8 2258,-108.8 1882,-108.8"/>
</g>
<!-- AppComponent -->
<g id="node1" class="node">
<title>AppComponent</title>
<polygon fill="#ffffb3" stroke="black" points="1079.94,-84.8 974.06,-84.8 974.06,-48.8 1079.94,-48.8 1079.94,-84.8"/>
<text text-anchor="middle" x="1027" y="-62.6" font-family="Times,serif" font-size="14.00">AppComponent</text>
</g>
<!-- AppModule -->
<g id="node4" class="node">
<title>AppModule</title>
<polygon fill="#8dd3c7" stroke="black" points="639.66,-152.8 636.66,-156.8 615.66,-156.8 612.66,-152.8 556.34,-152.8 556.34,-116.8 639.66,-116.8 639.66,-152.8"/>
<text text-anchor="middle" x="598" y="-130.6" font-family="Times,serif" font-size="14.00">AppModule</text>
</g>
<!-- AppComponent&#45;&gt;AppModule -->
<g id="edge1" class="edge">
<title>AppComponent&#45;&gt;AppModule</title>
<path fill="none" stroke="black" d="M1027,-84.95C1027,-108.56 1027,-146.8 1027,-146.8 1027,-146.8 649.92,-146.8 649.92,-146.8"/>
<polygon fill="black" stroke="black" points="649.92,-143.3 639.92,-146.8 649.92,-150.3 649.92,-143.3"/>
</g>
<!-- LoginComponent -->
<g id="node2" class="node">
<title>LoginComponent</title>
<polygon fill="#ffffb3" stroke="black" points="956.27,-84.8 841.73,-84.8 841.73,-48.8 956.27,-48.8 956.27,-84.8"/>
<text text-anchor="middle" x="899" y="-62.6" font-family="Times,serif" font-size="14.00">LoginComponent</text>
</g>
<!-- LoginComponent&#45;&gt;AppModule -->
<g id="edge2" class="edge">
<title>LoginComponent&#45;&gt;AppModule</title>
<path fill="none" stroke="black" d="M899,-85.09C899,-107.01 899,-140.8 899,-140.8 899,-140.8 649.85,-140.8 649.85,-140.8"/>
<polygon fill="black" stroke="black" points="649.85,-137.3 639.85,-140.8 649.85,-144.3 649.85,-137.3"/>
</g>
<!-- NotFoundComponent -->
<g id="node3" class="node">
<title>NotFoundComponent</title>
<polygon fill="#ffffb3" stroke="black" points="824.12,-84.8 685.88,-84.8 685.88,-48.8 824.12,-48.8 824.12,-84.8"/>
<text text-anchor="middle" x="755" y="-62.6" font-family="Times,serif" font-size="14.00">NotFoundComponent</text>
</g>
<!-- NotFoundComponent&#45;&gt;AppModule -->
<g id="edge3" class="edge">
<title>NotFoundComponent&#45;&gt;AppModule</title>
<path fill="none" stroke="black" d="M703.71,-85.02C703.71,-105.17 703.71,-134.8 703.71,-134.8 703.71,-134.8 649.78,-134.8 649.78,-134.8"/>
<polygon fill="black" stroke="black" points="649.78,-131.3 639.78,-134.8 649.78,-138.3 649.78,-131.3"/>
</g>
<!-- LoginComponent  -->
<g id="node6" class="node">
<title>LoginComponent </title>
<polygon fill="#fb8072" stroke="black" points="589.27,-220.8 470.73,-220.8 470.73,-184.8 589.27,-184.8 589.27,-220.8"/>
<text text-anchor="middle" x="530" y="-198.6" font-family="Times,serif" font-size="14.00">LoginComponent </text>
</g>
<!-- AppModule&#45;&gt;LoginComponent  -->
<g id="edge5" class="edge">
<title>AppModule&#45;&gt;LoginComponent </title>
<path fill="none" stroke="black" stroke-dasharray="5,2" d="M572.65,-153.02C572.65,-153.02 572.65,-174.53 572.65,-174.53"/>
<polygon fill="black" stroke="black" points="569.15,-174.53 572.65,-184.53 576.15,-174.53 569.15,-174.53"/>
</g>
<!-- AppComponent  -->
<g id="node7" class="node">
<title>AppComponent </title>
<polygon fill="#80b1d3" stroke="black" points="721.44,-220.8 612.56,-220.8 612.56,-184.8 721.44,-184.8 721.44,-220.8"/>
<text text-anchor="middle" x="667" y="-198.6" font-family="Times,serif" font-size="14.00">AppComponent </text>
</g>
<!-- AppModule&#45;&gt;AppComponent  -->
<g id="edge6" class="edge">
<title>AppModule&#45;&gt;AppComponent </title>
<path fill="none" stroke="black" stroke-dasharray="1,5" d="M626.18,-153.02C626.18,-153.02 626.18,-174.53 626.18,-174.53"/>
<polygon fill="black" stroke="black" points="622.68,-174.53 626.18,-184.53 629.68,-174.53 622.68,-174.53"/>
</g>
<!-- AppRoutingModule -->
<g id="node5" class="node">
<title>AppRoutingModule</title>
<polygon fill="#8dd3c7" stroke="black" points="662.28,-84.8 659.28,-88.8 638.28,-88.8 635.28,-84.8 533.72,-84.8 533.72,-48.8 662.28,-48.8 662.28,-84.8"/>
<text text-anchor="middle" x="598" y="-62.6" font-family="Times,serif" font-size="14.00">AppRoutingModule</text>
</g>
<!-- AppRoutingModule&#45;&gt;AppModule -->
<g id="edge4" class="edge">
<title>AppRoutingModule&#45;&gt;AppModule</title>
<path fill="none" stroke="black" d="M598,-85.02C598,-85.02 598,-106.53 598,-106.53"/>
<polygon fill="black" stroke="black" points="594.5,-106.53 598,-116.53 601.5,-106.53 594.5,-106.53"/>
</g>
<!-- LoaderInterceptor -->
<g id="node8" class="node">
<title>LoaderInterceptor</title>
<ellipse fill="#fdb462" stroke="black" cx="429" cy="-66.8" rx="80.98" ry="18"/>
<text text-anchor="middle" x="429" y="-62.6" font-family="Times,serif" font-size="14.00">LoaderInterceptor</text>
</g>
<!-- LoaderInterceptor&#45;&gt;AppModule -->
<g id="edge7" class="edge">
<title>LoaderInterceptor&#45;&gt;AppModule</title>
<path fill="none" stroke="black" d="M490.3,-78.74C490.3,-95.98 490.3,-125.8 490.3,-125.8 490.3,-125.8 546.05,-125.8 546.05,-125.8"/>
<polygon fill="black" stroke="black" points="546.05,-129.3 556.05,-125.8 546.05,-122.3 546.05,-129.3"/>
</g>
<!-- LoginService -->
<g id="node9" class="node">
<title>LoginService</title>
<ellipse fill="#fdb462" stroke="black" cx="267" cy="-66.8" rx="63.12" ry="18"/>
<text text-anchor="middle" x="267" y="-62.6" font-family="Times,serif" font-size="14.00">LoginService</text>
</g>
<!-- LoginService&#45;&gt;AppModule -->
<g id="edge8" class="edge">
<title>LoginService&#45;&gt;AppModule</title>
<path fill="none" stroke="black" d="M267,-85.02C267,-105.17 267,-134.8 267,-134.8 267,-134.8 546.08,-134.8 546.08,-134.8"/>
<polygon fill="black" stroke="black" points="546.08,-138.3 556.08,-134.8 546.08,-131.3 546.08,-138.3"/>
</g>
<!-- MainStoreService -->
<g id="node10" class="node">
<title>MainStoreService</title>
<ellipse fill="#fdb462" stroke="black" cx="105" cy="-66.8" rx="80.52" ry="18"/>
<text text-anchor="middle" x="105" y="-62.6" font-family="Times,serif" font-size="14.00">MainStoreService</text>
</g>
<!-- MainStoreService&#45;&gt;AppModule -->
<g id="edge9" class="edge">
<title>MainStoreService&#45;&gt;AppModule</title>
<path fill="none" stroke="black" d="M105,-85.05C105,-107.82 105,-143.8 105,-143.8 105,-143.8 545.97,-143.8 545.97,-143.8"/>
<polygon fill="black" stroke="black" points="545.97,-147.3 555.97,-143.8 545.97,-140.3 545.97,-147.3"/>
</g>
<!-- HeroesFormComponent -->
<g id="node11" class="node">
<title>HeroesFormComponent</title>
<polygon fill="#ffffb3" stroke="black" points="1565.82,-84.8 1414.18,-84.8 1414.18,-48.8 1565.82,-48.8 1565.82,-84.8"/>
<text text-anchor="middle" x="1490" y="-62.6" font-family="Times,serif" font-size="14.00">HeroesFormComponent</text>
</g>
<!-- HeroesModule -->
<g id="node14" class="node">
<title>HeroesModule</title>
<polygon fill="#8dd3c7" stroke="black" points="1539.7,-152.8 1536.7,-156.8 1515.7,-156.8 1512.7,-152.8 1440.3,-152.8 1440.3,-116.8 1539.7,-116.8 1539.7,-152.8"/>
<text text-anchor="middle" x="1490" y="-130.6" font-family="Times,serif" font-size="14.00">HeroesModule</text>
</g>
<!-- HeroesFormComponent&#45;&gt;HeroesModule -->
<g id="edge10" class="edge">
<title>HeroesFormComponent&#45;&gt;HeroesModule</title>
<path fill="none" stroke="black" d="M1490,-85.02C1490,-85.02 1490,-106.53 1490,-106.53"/>
<polygon fill="black" stroke="black" points="1486.5,-106.53 1490,-116.53 1493.5,-106.53 1486.5,-106.53"/>
</g>
<!-- HeroesListComponent -->
<g id="node12" class="node">
<title>HeroesListComponent</title>
<polygon fill="#ffffb3" stroke="black" points="1396.26,-84.8 1253.74,-84.8 1253.74,-48.8 1396.26,-48.8 1396.26,-84.8"/>
<text text-anchor="middle" x="1325" y="-62.6" font-family="Times,serif" font-size="14.00">HeroesListComponent</text>
</g>
<!-- HeroesListComponent&#45;&gt;HeroesModule -->
<g id="edge11" class="edge">
<title>HeroesListComponent&#45;&gt;HeroesModule</title>
<path fill="none" stroke="black" d="M1325,-84.83C1325,-101.2 1325,-122.8 1325,-122.8 1325,-122.8 1430.05,-122.8 1430.05,-122.8"/>
<polygon fill="black" stroke="black" points="1430.05,-126.3 1440.05,-122.8 1430.05,-119.3 1430.05,-126.3"/>
</g>
<!-- HomeComponent -->
<g id="node13" class="node">
<title>HomeComponent</title>
<polygon fill="#ffffb3" stroke="black" points="1235.55,-84.8 1120.45,-84.8 1120.45,-48.8 1235.55,-48.8 1235.55,-84.8"/>
<text text-anchor="middle" x="1178" y="-62.6" font-family="Times,serif" font-size="14.00">HomeComponent</text>
</g>
<!-- HomeComponent&#45;&gt;HeroesModule -->
<g id="edge12" class="edge">
<title>HomeComponent&#45;&gt;HeroesModule</title>
<path fill="none" stroke="black" d="M1178,-85.07C1178,-103.36 1178,-128.8 1178,-128.8 1178,-128.8 1430.22,-128.8 1430.22,-128.8"/>
<polygon fill="black" stroke="black" points="1430.22,-132.3 1440.22,-128.8 1430.22,-125.3 1430.22,-132.3"/>
</g>
<!-- HeroesRoutingModule -->
<g id="node15" class="node">
<title>HeroesRoutingModule</title>
<polygon fill="#8dd3c7" stroke="black" points="1734.32,-84.8 1731.32,-88.8 1710.32,-88.8 1707.32,-84.8 1589.68,-84.8 1589.68,-48.8 1734.32,-48.8 1734.32,-84.8"/>
<text text-anchor="middle" x="1662" y="-62.6" font-family="Times,serif" font-size="14.00">HeroesRoutingModule</text>
</g>
<!-- HeroesRoutingModule&#45;&gt;HeroesModule -->
<g id="edge13" class="edge">
<title>HeroesRoutingModule&#45;&gt;HeroesModule</title>
<path fill="none" stroke="black" d="M1662,-85.02C1662,-105.17 1662,-134.8 1662,-134.8 1662,-134.8 1549.75,-134.8 1549.75,-134.8"/>
<polygon fill="black" stroke="black" points="1549.75,-131.3 1539.75,-134.8 1549.75,-138.3 1549.75,-131.3"/>
</g>
<!-- SharedModule -->
<g id="node16" class="node">
<title>SharedModule</title>
<polygon fill="#8dd3c7" stroke="black" points="1850.43,-84.8 1847.43,-88.8 1826.43,-88.8 1823.43,-84.8 1751.57,-84.8 1751.57,-48.8 1850.43,-48.8 1850.43,-84.8"/>
<text text-anchor="middle" x="1801" y="-62.6" font-family="Times,serif" font-size="14.00">SharedModule</text>
</g>
<!-- SharedModule&#45;&gt;HeroesModule -->
<g id="edge14" class="edge">
<title>SharedModule&#45;&gt;HeroesModule</title>
<path fill="none" stroke="black" d="M1784.6,-85.05C1784.6,-107.82 1784.6,-143.8 1784.6,-143.8 1784.6,-143.8 1549.64,-143.8 1549.64,-143.8"/>
<polygon fill="black" stroke="black" points="1549.64,-140.3 1539.64,-143.8 1549.64,-147.3 1549.64,-140.3"/>
</g>
<!-- CustomUppercaseDirective  -->
<g id="node19" class="node">
<title>CustomUppercaseDirective </title>
<polygon fill="#fb8072" stroke="black" points="2250.22,-152.8 2075.78,-152.8 2075.78,-116.8 2250.22,-116.8 2250.22,-152.8"/>
<text text-anchor="middle" x="2163" y="-130.6" font-family="Times,serif" font-size="14.00">CustomUppercaseDirective </text>
</g>
<!-- SharedModule&#45;&gt;CustomUppercaseDirective  -->
<g id="edge17" class="edge">
<title>SharedModule&#45;&gt;CustomUppercaseDirective </title>
<path fill="none" stroke="black" stroke-dasharray="5,2" d="M1850.58,-75.8C1949.72,-75.8 2163,-75.8 2163,-75.8 2163,-75.8 2163,-106.78 2163,-106.78"/>
<polygon fill="black" stroke="black" points="2159.5,-106.78 2163,-116.78 2166.5,-106.78 2159.5,-106.78"/>
</g>
<!-- DialogContentComponent  -->
<g id="node20" class="node">
<title>DialogContentComponent </title>
<polygon fill="#fb8072" stroke="black" points="2057.77,-152.8 1890.23,-152.8 1890.23,-116.8 2057.77,-116.8 2057.77,-152.8"/>
<text text-anchor="middle" x="1974" y="-130.6" font-family="Times,serif" font-size="14.00">DialogContentComponent </text>
</g>
<!-- SharedModule&#45;&gt;DialogContentComponent  -->
<g id="edge18" class="edge">
<title>SharedModule&#45;&gt;DialogContentComponent </title>
<path fill="none" stroke="black" stroke-dasharray="5,2" d="M1817.4,-84.82C1817.4,-102.17 1817.4,-125.8 1817.4,-125.8 1817.4,-125.8 1880.2,-125.8 1880.2,-125.8"/>
<polygon fill="black" stroke="black" points="1880.2,-129.3 1890.2,-125.8 1880.2,-122.3 1880.2,-129.3"/>
</g>
<!-- CustomUppercaseDirective -->
<g id="node17" class="node">
<title>CustomUppercaseDirective</title>
<polygon fill="#ffffb3" stroke="black" points="2626.22,-152.8 2455.78,-152.8 2455.78,-116.8 2626.22,-116.8 2626.22,-152.8"/>
<text text-anchor="middle" x="2541" y="-130.6" font-family="Times,serif" font-size="14.00">CustomUppercaseDirective</text>
</g>
<!-- CustomUppercaseDirective&#45;&gt;SharedModule -->
<g id="edge15" class="edge">
<title>CustomUppercaseDirective&#45;&gt;SharedModule</title>
<path fill="none" stroke="black" d="M2541,-116.55C2541,-93.78 2541,-57.8 2541,-57.8 2541,-57.8 1860.41,-57.8 1860.41,-57.8"/>
<polygon fill="black" stroke="black" points="1860.41,-54.3 1850.41,-57.8 1860.41,-61.3 1860.41,-54.3"/>
</g>
<!-- DialogContentComponent -->
<g id="node18" class="node">
<title>DialogContentComponent</title>
<polygon fill="#ffffb3" stroke="black" points="2437.77,-152.8 2274.23,-152.8 2274.23,-116.8 2437.77,-116.8 2437.77,-152.8"/>
<text text-anchor="middle" x="2356" y="-130.6" font-family="Times,serif" font-size="14.00">DialogContentComponent</text>
</g>
<!-- DialogContentComponent&#45;&gt;SharedModule -->
<g id="edge16" class="edge">
<title>DialogContentComponent&#45;&gt;SharedModule</title>
<path fill="none" stroke="black" d="M2356,-116.58C2356,-96.43 2356,-66.8 2356,-66.8 2356,-66.8 1860.25,-66.8 1860.25,-66.8"/>
<polygon fill="black" stroke="black" points="1860.25,-63.3 1850.25,-66.8 1860.25,-70.3 1860.25,-63.3"/>
</g>
</g>
</svg>
